<svg width="18" height="19" viewBox="0 0 18 19" fill="none" xmlns="http://www.w3.org/2000/svg">
<path d="M0.99 18.3208V15.3508H4.059L1.5345 7.08432C1.089 6.83682 0.721875 6.47382 0.433125 5.99532C0.144375 5.51682 0 5.00532 0 4.46082C0 3.63582 0.28875 2.93457 0.86625 2.35707C1.44375 1.77957 2.145 1.49082 2.97 1.49082C3.6135 1.49082 4.18688 1.67645 4.69013 2.0477C5.19338 2.41895 5.544 2.89332 5.742 3.47082H8.91V2.48082C8.91 2.20032 9.00488 1.9652 9.19463 1.77545C9.38438 1.5857 9.6195 1.49082 9.9 1.49082C10.0485 1.49082 10.1929 1.52382 10.3331 1.58982C10.4734 1.65582 10.593 1.75482 10.692 1.88682L12.375 0.302824C12.5235 0.154324 12.7009 0.0594485 12.9071 0.0181985C13.1134 -0.0230515 13.3155 0.00582353 13.5135 0.104824L17.3745 1.88682C17.5725 1.98582 17.7086 2.1302 17.7829 2.31995C17.8571 2.5097 17.853 2.69532 17.7705 2.87682C17.6715 3.07482 17.5271 3.2027 17.3374 3.26045C17.1476 3.3182 16.962 3.30582 16.7805 3.22332L13.2165 1.58982L10.89 3.76782V5.15382L13.2165 7.28232L16.7805 5.64882C16.962 5.56632 17.1517 5.55807 17.3497 5.62407C17.5478 5.69007 17.688 5.81382 17.7705 5.99532C17.8695 6.19332 17.8778 6.38307 17.7953 6.56457C17.7127 6.74607 17.5725 6.88632 17.3745 6.98532L13.5135 8.81682C13.3155 8.91582 13.1134 8.9447 12.9071 8.90345C12.7009 8.8622 12.5235 8.76732 12.375 8.61882L10.692 7.03482C10.593 7.13382 10.4734 7.22457 10.3331 7.30707C10.1929 7.38957 10.0485 7.43082 9.9 7.43082C9.6195 7.43082 9.38438 7.33595 9.19463 7.1462C9.00488 6.95645 8.91 6.72132 8.91 6.44082V5.45082H5.742C5.6925 5.58282 5.63887 5.70657 5.58112 5.82207C5.52337 5.93757 5.445 6.06132 5.346 6.19332L10.296 15.3508H13.86V18.3208H0.99ZM2.97 5.45082C3.2505 5.45082 3.48563 5.35595 3.67538 5.1662C3.86513 4.97645 3.96 4.74132 3.96 4.46082C3.96 4.18032 3.86513 3.9452 3.67538 3.75545C3.48563 3.5657 3.2505 3.47082 2.97 3.47082C2.6895 3.47082 2.45437 3.5657 2.26462 3.75545C2.07487 3.9452 1.98 4.18032 1.98 4.46082C1.98 4.74132 2.07487 4.97645 2.26462 5.1662C2.45437 5.35595 2.6895 5.45082 2.97 5.45082ZM6.0885 15.3508H8.019L3.762 7.43082C3.762 7.43082 3.7455 7.43082 3.7125 7.43082C3.6795 7.43082 3.663 7.43082 3.663 7.43082L6.0885 15.3508Z" fill="#45464D"/>
</svg>
