<svg width="132" height="24" viewBox="0 0 132 24" fill="none" xmlns="http://www.w3.org/2000/svg">
<path d="M0.833333 19.7106V17.2106H3.41667L1.29167 10.2523C0.916667 10.044 0.607639 9.73841 0.364583 9.33563C0.121528 8.93285 0 8.5023 0 8.04396C0 7.34952 0.243056 6.75924 0.729167 6.27313C1.21528 5.78702 1.80556 5.54396 2.5 5.54396C3.04167 5.54396 3.52431 5.70021 3.94792 6.01271C4.37153 6.32521 4.66667 6.72452 4.83333 7.21063H7.5V6.3773C7.5 6.14119 7.57986 5.94327 7.73958 5.78355C7.89931 5.62383 8.09722 5.54396 8.33333 5.54396C8.45833 5.54396 8.57986 5.57174 8.69792 5.6273C8.81597 5.68285 8.91667 5.76619 9 5.8773V5.8773L10.4167 4.54396C10.5417 4.41896 10.691 4.3391 10.8646 4.30438C11.0382 4.26966 11.2083 4.29396 11.375 4.3773L14.625 5.8773C14.7917 5.96063 14.9062 6.08216 14.9688 6.24188C15.0312 6.4016 15.0278 6.55785 14.9583 6.71063C14.875 6.8773 14.7535 6.98494 14.5938 7.03355C14.434 7.08216 14.2778 7.07174 14.125 7.0023L11.125 5.6273L9.16667 7.46063V8.6273L11.125 10.419L14.125 9.04396C14.2778 8.97452 14.4375 8.96758 14.6042 9.02313C14.7708 9.07869 14.8889 9.18285 14.9583 9.33563C15.0417 9.5023 15.0486 9.66202 14.9792 9.8148C14.9097 9.96758 14.7917 10.0856 14.625 10.169L11.375 11.7106C11.2083 11.794 11.0382 11.8183 10.8646 11.7835C10.691 11.7488 10.5417 11.669 10.4167 11.544L9 10.2106V10.2106C8.91667 10.294 8.81597 10.3704 8.69792 10.4398C8.57986 10.5092 8.45833 10.544 8.33333 10.544C8.09722 10.544 7.89931 10.4641 7.73958 10.3044C7.57986 10.1447 7.5 9.94674 7.5 9.71063V8.8773H4.83333C4.79167 8.98841 4.74653 9.09258 4.69792 9.1898C4.64931 9.28702 4.58333 9.39119 4.5 9.5023L8.66667 17.2106H11.6667V19.7106H0.833333V19.7106M2.5 8.8773C2.73611 8.8773 2.93403 8.79744 3.09375 8.63771C3.25347 8.47799 3.33333 8.28008 3.33333 8.04396C3.33333 7.80785 3.25347 7.60994 3.09375 7.45021C2.93403 7.29049 2.73611 7.21063 2.5 7.21063C2.26389 7.21063 2.06597 7.29049 1.90625 7.45021C1.74653 7.60994 1.66667 7.80785 1.66667 8.04396C1.66667 8.28008 1.74653 8.47799 1.90625 8.63771C2.06597 8.79744 2.26389 8.8773 2.5 8.8773V8.8773" fill="#0F172A"/>
<path d="M30.9633 9.27273C30.8951 8.69697 30.6186 8.25 30.1337 7.93182C29.6489 7.61364 29.0542 7.45455 28.3496 7.45455C27.8345 7.45455 27.3837 7.53788 26.9974 7.70455C26.6148 7.87121 26.3156 8.10038 26.0996 8.39205C25.8875 8.68371 25.7815 9.01515 25.7815 9.38636C25.7815 9.69697 25.8553 9.96401 26.0031 10.1875C26.1546 10.4072 26.3477 10.5909 26.5826 10.7386C26.8174 10.8826 27.0637 11.0019 27.3212 11.0966C27.5788 11.1875 27.8156 11.2614 28.0315 11.3182L29.2133 11.6364C29.5163 11.7159 29.8534 11.8258 30.2246 11.9659C30.5996 12.1061 30.9576 12.2973 31.2985 12.5398C31.6432 12.7784 31.9273 13.0852 32.1508 13.4602C32.3743 13.8352 32.486 14.2955 32.486 14.8409C32.486 15.4697 32.3212 16.0379 31.9917 16.5455C31.6659 17.053 31.1887 17.4564 30.5599 17.7557C29.9349 18.0549 29.1754 18.2045 28.2815 18.2045C27.4481 18.2045 26.7265 18.0701 26.1167 17.8011C25.5106 17.5322 25.0334 17.1572 24.6849 16.6761C24.3402 16.1951 24.1451 15.6364 24.0996 15H25.5542C25.5921 15.4394 25.7398 15.803 25.9974 16.0909C26.2587 16.375 26.5883 16.5871 26.986 16.7273C27.3875 16.8636 27.8193 16.9318 28.2815 16.9318C28.8193 16.9318 29.3023 16.8447 29.7303 16.6705C30.1584 16.4924 30.4974 16.2462 30.7474 15.9318C30.9974 15.6136 31.1224 15.2424 31.1224 14.8182C31.1224 14.4318 31.0144 14.1174 30.7985 13.875C30.5826 13.6326 30.2985 13.4356 29.9462 13.2841C29.594 13.1326 29.2133 13 28.8042 12.8864L27.3724 12.4773C26.4633 12.2159 25.7436 11.8428 25.2133 11.358C24.683 10.8731 24.4178 10.2386 24.4178 9.45455C24.4178 8.80303 24.594 8.23485 24.9462 7.75C25.3023 7.26136 25.7796 6.88258 26.3781 6.61364C26.9803 6.34091 27.6527 6.20455 28.3951 6.20455C29.1451 6.20455 29.8118 6.33901 30.3951 6.60795C30.9784 6.87311 31.4406 7.23674 31.7815 7.69886C32.1262 8.16098 32.308 8.68561 32.3269 9.27273H30.9633ZM34.6209 18V9.27273H35.9164V10.6364H36.03C36.2119 10.1705 36.5054 9.80871 36.9107 9.55114C37.316 9.28977 37.8028 9.15909 38.3709 9.15909C38.9467 9.15909 39.4259 9.28977 39.8084 9.55114C40.1948 9.80871 40.4959 10.1705 40.7119 10.6364H40.8028C41.0263 10.1856 41.3615 9.82765 41.8084 9.5625C42.2554 9.29356 42.7914 9.15909 43.4164 9.15909C44.1967 9.15909 44.835 9.40341 45.3312 9.89205C45.8274 10.3769 46.0755 11.1326 46.0755 12.1591V18H44.7346V12.1591C44.7346 11.5152 44.5584 11.0549 44.2062 10.7784C43.8539 10.5019 43.4391 10.3636 42.9619 10.3636C42.3482 10.3636 41.8728 10.5492 41.5357 10.9205C41.1986 11.2879 41.03 11.7538 41.03 12.3182V18H39.6664V12.0227C39.6664 11.5265 39.5054 11.1269 39.1834 10.8239C38.8615 10.517 38.4467 10.3636 37.9391 10.3636C37.5906 10.3636 37.2649 10.4564 36.9619 10.642C36.6626 10.8277 36.4202 11.0852 36.2346 11.4148C36.0528 11.7405 35.9619 12.1174 35.9619 12.5455V18H34.6209ZM51.0954 18.2045C50.5424 18.2045 50.0405 18.1004 49.5897 17.892C49.1389 17.6799 48.781 17.375 48.5158 16.9773C48.2507 16.5758 48.1181 16.0909 48.1181 15.5227C48.1181 15.0227 48.2166 14.6174 48.4136 14.3068C48.6105 13.9924 48.8738 13.7462 49.2033 13.5682C49.5329 13.3902 49.8965 13.2576 50.2942 13.1705C50.6958 13.0795 51.0992 13.0076 51.5045 12.9545C52.0348 12.8864 52.4647 12.8352 52.7942 12.8011C53.1276 12.7633 53.37 12.7008 53.5215 12.6136C53.6768 12.5265 53.7545 12.375 53.7545 12.1591V12.1136C53.7545 11.553 53.6011 11.1174 53.2942 10.8068C52.9912 10.4962 52.531 10.3409 51.9136 10.3409C51.2734 10.3409 50.7715 10.4811 50.4079 10.7614C50.0442 11.0417 49.7886 11.3409 49.6408 11.6591L48.3681 11.2045C48.5954 10.6742 48.8984 10.2614 49.2772 9.96591C49.6598 9.66667 50.0764 9.45833 50.5272 9.34091C50.9817 9.2197 51.4287 9.15909 51.8681 9.15909C52.1484 9.15909 52.4704 9.19318 52.834 9.26136C53.2014 9.32576 53.5556 9.46023 53.8965 9.66477C54.2412 9.86932 54.5272 10.178 54.7545 10.5909C54.9817 11.0038 55.0954 11.5568 55.0954 12.25V18H53.7545V16.8182H53.6863C53.5954 17.0076 53.4439 17.2102 53.2317 17.4261C53.0196 17.642 52.7374 17.8258 52.3852 17.9773C52.0329 18.1288 51.603 18.2045 51.0954 18.2045ZM51.2999 17C51.8302 17 52.2772 16.8958 52.6408 16.6875C53.0083 16.4792 53.2848 16.2102 53.4704 15.8807C53.6598 15.5511 53.7545 15.2045 53.7545 14.8409V13.6136C53.6977 13.6818 53.5727 13.7443 53.3795 13.8011C53.1901 13.8542 52.9704 13.9015 52.7204 13.9432C52.4742 13.9811 52.2336 14.0152 51.9988 14.0455C51.7677 14.072 51.5802 14.0947 51.4363 14.1136C51.0878 14.1591 50.762 14.233 50.459 14.3352C50.1598 14.4337 49.9174 14.5833 49.7317 14.7841C49.5499 14.9811 49.459 15.25 49.459 15.5909C49.459 16.0568 49.6314 16.4091 49.9761 16.6477C50.3245 16.8826 50.7658 17 51.2999 17ZM57.5428 18V9.27273H58.8383V10.5909H58.9292C59.0883 10.1591 59.3762 9.80871 59.7928 9.53977C60.2095 9.27083 60.6792 9.13636 61.2019 9.13636C61.3004 9.13636 61.4235 9.13826 61.5712 9.14205C61.719 9.14583 61.8307 9.15152 61.9065 9.15909V10.5227C61.861 10.5114 61.7568 10.4943 61.594 10.4716C61.4349 10.4451 61.2663 10.4318 61.0883 10.4318C60.664 10.4318 60.2852 10.5208 59.9519 10.6989C59.6224 10.8731 59.361 11.1155 59.1678 11.4261C58.9784 11.733 58.8837 12.0833 58.8837 12.4773V18H57.5428ZM67.8383 9.27273V10.4091H63.3156V9.27273H67.8383ZM64.6337 7.18182H65.9746V15.5C65.9746 15.8788 66.0296 16.1629 66.1394 16.3523C66.2531 16.5379 66.397 16.6629 66.5712 16.7273C66.7493 16.7879 66.9368 16.8182 67.1337 16.8182C67.2815 16.8182 67.4027 16.8106 67.4974 16.7955C67.5921 16.7765 67.6678 16.7614 67.7246 16.75L67.9974 17.9545C67.9065 17.9886 67.7796 18.0227 67.6167 18.0568C67.4538 18.0947 67.2474 18.1136 66.9974 18.1136C66.6186 18.1136 66.2474 18.0322 65.8837 17.8693C65.5239 17.7064 65.2246 17.4583 64.986 17.125C64.7512 16.7917 64.6337 16.3712 64.6337 15.8636V7.18182ZM74.5371 18V6.36364H81.5144V7.61364H75.9462V11.5455H80.9917V12.7955H75.9462V18H74.5371ZM86.3141 18.2045C85.7611 18.2045 85.2592 18.1004 84.8084 17.892C84.3577 17.6799 83.9997 17.375 83.7346 16.9773C83.4694 16.5758 83.3369 16.0909 83.3369 15.5227C83.3369 15.0227 83.4353 14.6174 83.6323 14.3068C83.8293 13.9924 84.0925 13.7462 84.4221 13.5682C84.7516 13.3902 85.1153 13.2576 85.513 13.1705C85.9145 13.0795 86.3179 13.0076 86.7232 12.9545C87.2535 12.8864 87.6834 12.8352 88.013 12.8011C88.3463 12.7633 88.5888 12.7008 88.7403 12.6136C88.8956 12.5265 88.9732 12.375 88.9732 12.1591V12.1136C88.9732 11.553 88.8198 11.1174 88.513 10.8068C88.21 10.4962 87.7497 10.3409 87.1323 10.3409C86.4922 10.3409 85.9903 10.4811 85.6266 10.7614C85.263 11.0417 85.0073 11.3409 84.8596 11.6591L83.5869 11.2045C83.8141 10.6742 84.1172 10.2614 84.4959 9.96591C84.8785 9.66667 85.2952 9.45833 85.7459 9.34091C86.2005 9.2197 86.6475 9.15909 87.0869 9.15909C87.3672 9.15909 87.6891 9.19318 88.0528 9.26136C88.4202 9.32576 88.7744 9.46023 89.1153 9.66477C89.46 9.86932 89.7459 10.178 89.9732 10.5909C90.2005 11.0038 90.3141 11.5568 90.3141 12.25V18H88.9732V16.8182H88.905C88.8141 17.0076 88.6626 17.2102 88.4505 17.4261C88.2384 17.642 87.9562 17.8258 87.6039 17.9773C87.2516 18.1288 86.8217 18.2045 86.3141 18.2045ZM86.5187 17C87.049 17 87.4959 16.8958 87.8596 16.6875C88.227 16.4792 88.5035 16.2102 88.6891 15.8807C88.8785 15.5511 88.9732 15.2045 88.9732 14.8409V13.6136C88.9164 13.6818 88.7914 13.7443 88.5982 13.8011C88.4088 13.8542 88.1891 13.9015 87.9391 13.9432C87.6929 13.9811 87.4524 14.0152 87.2175 14.0455C86.9865 14.072 86.799 14.0947 86.655 14.1136C86.3066 14.1591 85.9808 14.233 85.6778 14.3352C85.3785 14.4337 85.1361 14.5833 84.9505 14.7841C84.7687 14.9811 84.6778 15.25 84.6778 15.5909C84.6778 16.0568 84.8501 16.4091 85.1948 16.6477C85.5433 16.8826 85.9846 17 86.5187 17ZM96.307 18.1818C95.4888 18.1818 94.7843 17.9886 94.1934 17.6023C93.6025 17.2159 93.1479 16.6837 92.8298 16.0057C92.5116 15.3277 92.3525 14.553 92.3525 13.6818C92.3525 12.7955 92.5154 12.0133 92.8411 11.3352C93.1707 10.6534 93.629 10.1212 94.2161 9.73864C94.807 9.35227 95.4964 9.15909 96.2843 9.15909C96.8979 9.15909 97.451 9.27273 97.9434 9.5C98.4358 9.72727 98.8392 10.0455 99.1536 10.4545C99.468 10.8636 99.6631 11.3409 99.7388 11.8864H98.3979C98.2957 11.4886 98.0684 11.1364 97.7161 10.8295C97.3676 10.5189 96.8979 10.3636 96.307 10.3636C95.7843 10.3636 95.326 10.5 94.932 10.7727C94.5419 11.0417 94.237 11.4223 94.0173 11.9148C93.8013 12.4034 93.6934 12.9773 93.6934 13.6364C93.6934 14.3106 93.7995 14.8977 94.0116 15.3977C94.2275 15.8977 94.5305 16.286 94.9207 16.5625C95.3146 16.839 95.7767 16.9773 96.307 16.9773C96.6555 16.9773 96.9718 16.9167 97.2559 16.7955C97.54 16.6742 97.7805 16.5 97.9775 16.2727C98.1745 16.0455 98.3146 15.7727 98.3979 15.4545H99.7388C99.6631 15.9697 99.4756 16.4337 99.1763 16.8466C98.8809 17.2557 98.4888 17.5814 98.0002 17.8239C97.5154 18.0625 96.951 18.1818 96.307 18.1818ZM105.495 9.27273V10.4091H100.972V9.27273H105.495ZM102.29 7.18182H103.631V15.5C103.631 15.8788 103.686 16.1629 103.796 16.3523C103.909 16.5379 104.053 16.6629 104.227 16.7273C104.406 16.7879 104.593 16.8182 104.79 16.8182C104.938 16.8182 105.059 16.8106 105.154 16.7955C105.248 16.7765 105.324 16.7614 105.381 16.75L105.654 17.9545C105.563 17.9886 105.436 18.0227 105.273 18.0568C105.11 18.0947 104.904 18.1136 104.654 18.1136C104.275 18.1136 103.904 18.0322 103.54 17.8693C103.18 17.7064 102.881 17.4583 102.642 17.125C102.407 16.7917 102.29 16.3712 102.29 15.8636V7.18182ZM110.963 18.1818C110.175 18.1818 109.484 17.9943 108.889 17.6193C108.299 17.2443 107.836 16.7197 107.503 16.0455C107.174 15.3712 107.009 14.5833 107.009 13.6818C107.009 12.7727 107.174 11.9792 107.503 11.3011C107.836 10.6231 108.299 10.0966 108.889 9.72159C109.484 9.34659 110.175 9.15909 110.963 9.15909C111.751 9.15909 112.441 9.34659 113.031 9.72159C113.626 10.0966 114.088 10.6231 114.418 11.3011C114.751 11.9792 114.918 12.7727 114.918 13.6818C114.918 14.5833 114.751 15.3712 114.418 16.0455C114.088 16.7197 113.626 17.2443 113.031 17.6193C112.441 17.9943 111.751 18.1818 110.963 18.1818ZM110.963 16.9773C111.562 16.9773 112.054 16.8239 112.441 16.517C112.827 16.2102 113.113 15.8068 113.299 15.3068C113.484 14.8068 113.577 14.2652 113.577 13.6818C113.577 13.0985 113.484 12.5549 113.299 12.0511C113.113 11.5473 112.827 11.1402 112.441 10.8295C112.054 10.5189 111.562 10.3636 110.963 10.3636C110.365 10.3636 109.872 10.5189 109.486 10.8295C109.1 11.1402 108.814 11.5473 108.628 12.0511C108.442 12.5549 108.35 13.0985 108.35 13.6818C108.35 14.2652 108.442 14.8068 108.628 15.3068C108.814 15.8068 109.1 16.2102 109.486 16.517C109.872 16.8239 110.365 16.9773 110.963 16.9773ZM116.965 18V9.27273H118.26V10.5909H118.351C118.51 10.1591 118.798 9.80871 119.215 9.53977C119.631 9.27083 120.101 9.13636 120.624 9.13636C120.722 9.13636 120.845 9.13826 120.993 9.14205C121.141 9.14583 121.253 9.15152 121.328 9.15909V10.5227C121.283 10.5114 121.179 10.4943 121.016 10.4716C120.857 10.4451 120.688 10.4318 120.51 10.4318C120.086 10.4318 119.707 10.5208 119.374 10.6989C119.044 10.8731 118.783 11.1155 118.59 11.4261C118.4 11.733 118.306 12.0833 118.306 12.4773V18H116.965ZM124.047 21.2727C123.82 21.2727 123.617 21.2538 123.439 21.2159C123.261 21.1818 123.138 21.1477 123.07 21.1136L123.411 19.9318C123.736 20.0152 124.024 20.0455 124.274 20.0227C124.524 20 124.746 19.8883 124.939 19.6875C125.136 19.4905 125.316 19.1705 125.479 18.7273L125.729 18.0455L122.502 9.27273H123.956L126.365 16.2273H126.456L128.865 9.27273H130.32L126.615 19.2727C126.449 19.7235 126.242 20.0966 125.996 20.392C125.75 20.6913 125.464 20.9129 125.138 21.0568C124.816 21.2008 124.452 21.2727 124.047 21.2727Z" fill="#0F172A"/>
</svg>
